# Blender v2.79 (sub 0) OBJ File: ''
# www.blender.org
mtllib gathering_node.mtl
o Cone
v 0.000000 0.000000 -1.000000
v 0.000000 2.000000 0.000000
v 0.951057 0.000000 -0.309017
v 0.587785 0.000000 0.809017
v -0.587785 0.000000 0.809017
v -0.951056 0.000000 -0.309017
vt 0.250000 0.490000
vt 0.250000 0.250000
vt 0.478254 0.324164
vt 0.391068 0.055836
vt 0.108932 0.055836
vt 0.021746 0.324164
vt 0.978254 0.324164
vt 0.608932 0.055836
vt 0.521746 0.324164
vt 0.750000 0.490000
vt 0.891068 0.055836
vn 0.5449 0.3750 -0.7500
vn 0.8817 0.3750 0.2865
vn -0.0000 0.3750 0.9270
vn -0.8817 0.3750 0.2865
vn -0.5449 0.3750 -0.7500
vn 0.0000 -1.0000 0.0000
usemtl None
s off
f 1/1/1 2/2/1 3/3/1
f 3/3/2 2/2/2 4/4/2
f 4/4/3 2/2/3 5/5/3
f 5/5/4 2/2/4 6/6/4
f 6/6/5 2/2/5 1/1/5
f 3/7/6 5/8/6 6/9/6
f 6/9/6 1/10/6 3/7/6
f 3/7/6 4/11/6 5/8/6
o Cone.001
v 0.000000 0.000000 -1.000000
v -0.000000 -2.000000 0.000000
v -0.951056 0.000000 -0.309017
v -0.587785 0.000000 0.809017
v 0.587785 -0.000000 0.809017
v 0.951057 -0.000000 -0.309017
vt 0.250000 0.490000
vt 0.250000 0.250000
vt 0.478254 0.324164
vt 0.391068 0.055836
vt 0.108932 0.055836
vt 0.021746 0.324164
vt 0.978254 0.324164
vt 0.608932 0.055836
vt 0.521746 0.324164
vt 0.750000 0.490000
vt 0.891068 0.055836
vn -0.5449 -0.3750 -0.7500
vn -0.8817 -0.3750 0.2865
vn 0.0000 -0.3750 0.9270
vn 0.8817 -0.3750 0.2865
vn 0.5449 -0.3750 -0.7500
vn 0.0000 1.0000 0.0000
usemtl None
s off
f 7/12/7 8/13/7 9/14/7
f 9/14/8 8/13/8 10/15/8
f 10/15/9 8/13/9 11/16/9
f 11/16/10 8/13/10 12/17/10
f 12/17/11 8/13/11 7/12/11
f 9/18/12 11/19/12 12/20/12
f 12/20/12 7/21/12 9/18/12
f 9/18/12 10/22/12 11/19/12
