# Blender v2.79 (sub 0) OBJ File: ''
# www.blender.org
o sword_Cylinder
v 0.000000 -0.729640 -0.750000
v -0.057410 -0.610688 -0.500000
v -0.057410 -0.500000 -0.500000
v -0.057410 -0.610688 0.500000
v 0.000000 -0.729639 0.750000
v -0.057410 -0.500000 0.500000
v 0.057410 -0.500000 -0.500000
v 0.057410 -0.500000 0.500000
v 0.057410 -0.610688 -0.500000
v 0.057410 -0.610688 0.500000
v 0.000000 0.384783 -0.135880
v -0.062500 0.331109 -0.003298
v -0.044194 0.384783 -0.003298
v 0.000000 0.494618 -0.003298
v 0.000000 0.249488 -0.135880
v 0.000000 0.331109 -0.190798
v 0.000000 0.384783 0.129285
v 0.000000 0.249488 0.129285
v 0.000000 0.331109 0.184202
v 0.062500 0.331109 -0.003298
v 0.044194 0.384783 -0.003298
v -0.019593 -0.500000 -0.080902
v -0.031702 0.181125 -0.030902
v -0.019593 0.181125 -0.080902
v -0.031702 -0.500000 -0.030902
v -0.031702 0.181125 0.030902
v -0.031702 -0.500000 0.030902
v -0.019593 0.181125 0.080902
v -0.019593 -0.500000 0.080902
v 0.000000 0.181125 0.100000
v 0.000000 -0.500000 0.100000
v 0.019593 0.181125 0.080902
v 0.019593 -0.500000 0.080902
v 0.031702 0.181125 0.030902
v 0.031702 -0.500000 0.030902
v 0.031702 0.181125 -0.030902
v 0.031702 -0.500000 -0.030902
v 0.019593 0.181125 -0.080902
v 0.019593 -0.500000 -0.080902
v 0.000000 0.181125 -0.100000
v 0.044194 0.249488 -0.003298
v -0.044194 0.249488 -0.003298
v 0.000000 -0.500000 -0.100000
v 0.000000 -0.599781 -0.250000
v -0.031969 -3.151444 -0.001268
v -0.031250 -0.599781 -0.000000
v -0.000720 -3.151444 0.248732
v 0.000000 -0.599781 0.250000
v 0.031250 -0.599781 -0.000000
v 0.030530 -3.151444 -0.001268
v -0.000720 -3.151444 -0.251268
v -0.000720 -4.341647 -0.001268
vt 0.427400 0.720100
vt 0.408600 0.599500
vt 0.427400 0.596200
vt 0.482900 0.312900
vt 0.502000 0.766000
vt 0.482900 0.766000
vt 0.408600 0.591900
vt 0.427200 0.455100
vt 0.427200 0.596200
vt 0.094500 0.747200
vt 0.005900 0.694500
vt 0.183100 0.694500
vt 0.005900 0.483900
vt 0.094500 0.431300
vt 0.183100 0.483900
vt 0.482900 0.312900
vt 0.478700 0.549900
vt 0.459700 0.548600
vt 0.463900 0.778400
vt 0.364800 0.704300
vt 0.375300 0.467700
vt 0.383800 0.704300
vt 0.271800 0.747200
vt 0.183100 0.694600
vt 0.360400 0.694600
vt 0.183100 0.484000
vt 0.271800 0.431300
vt 0.360400 0.484000
vt 0.811200 0.197200
vt 0.935700 0.006200
vt 0.914300 0.068300
vt 0.862800 0.218300
vt 0.914500 0.621400
vt 0.789900 0.430400
vt 0.935700 0.612700
vt 0.914300 0.239400
vt 0.811400 0.663500
vt 0.789900 0.672300
vt 0.789900 0.430400
vt 0.811200 0.368300
vt 0.935700 0.854600
vt 0.325600 0.120300
vt 0.299900 0.076500
vt 0.326300 0.078900
vt 0.075600 0.078200
vt 0.029300 0.102100
vt 0.030300 0.076500
vt 0.298100 0.112400
vt 0.270300 0.073200
vt 0.300100 0.071100
vt 0.268300 0.114500
vt 0.210000 0.073900
vt 0.208100 0.115100
vt 0.142300 0.072800
vt 0.140300 0.114100
vt 0.093000 0.070400
vt 0.511600 0.126100
vt 0.498100 0.085400
vt 0.512200 0.084700
vt 0.497400 0.126900
vt 0.448800 0.084400
vt 0.448100 0.125800
vt 0.383100 0.081900
vt 0.871900 0.925600
vt 0.857100 0.925600
vt 0.879800 0.854600
vt 0.928400 0.854600
vt 0.928400 0.950500
vt 0.923900 0.903800
vt 0.900000 0.914100
vt 0.984800 0.430400
vt 0.977000 0.527200
vt 0.977500 0.477800
vt 0.900000 0.996700
vt 0.879800 0.925600
vt 0.892100 0.925600
vt 0.900000 0.854600
vt 0.789900 0.943800
vt 0.824800 0.854600
vt 0.810700 0.899900
vt 0.836300 0.899900
vt 0.857100 0.943800
vt 0.879800 0.996700
vt 0.777100 0.759700
vt 0.784600 0.685700
vt 0.784600 0.854300
vt 0.984800 0.600800
vt 0.925500 0.318100
vt 0.925500 0.436800
vt 0.917500 0.371900
vt 0.917500 0.496600
vt 0.925100 0.436800
vt 0.925100 0.544800
vt 0.701000 0.477500
vt 0.752000 0.702300
vt 0.726500 0.705700
vt 0.382500 0.123300
vt 0.134400 0.855200
vt 0.069400 0.990400
vt 0.068700 0.854900
vt 0.007400 0.990100
vt 0.006800 0.854600
vt 0.200500 0.855600
vt 0.282800 0.990000
vt 0.202000 0.989900
vt 0.200700 0.990300
vt 0.135600 0.855200
vt 0.199200 0.855400
vt 0.685300 0.474100
vt 0.571700 0.634300
vt 0.571700 0.474100
vt 0.431600 0.989400
vt 0.358600 0.909800
vt 0.431600 0.855100
vt 0.284800 0.855100
vt 0.284800 0.989400
vt 0.502000 0.312900
vt 0.482900 0.779700
vt 0.789900 0.188400
vt 0.811400 0.492500
vt 0.935700 0.248100
vt 0.914500 0.792400
vt 0.299300 0.118000
vt 0.074600 0.103800
vt 0.091000 0.111700
vt 0.701000 0.664800
vt 0.685300 0.523800
vt 0.685300 0.595400
vt 0.726500 0.474100
vt 0.752000 0.515000
vt 0.767700 0.584400
vt 0.767700 0.656000
vt 0.135000 0.990700
vt 0.282200 0.855700
vt 0.136300 0.990400
vt 0.685300 0.634300
vn -0.9746 0.0000 -0.2238
vn -1.0000 -0.0000 0.0000
vn -0.9746 -0.0000 0.2238
vn 0.0000 0.7365 -0.6765
vn 0.0000 1.0000 0.0000
vn 0.0000 0.7365 0.6765
vn 0.9746 0.0000 -0.2238
vn 1.0000 -0.0000 0.0000
vn 0.9746 -0.0000 0.2238
vn 0.0000 -0.9030 0.4297
vn 0.0000 -1.0000 -0.0000
vn 0.0000 -0.9030 -0.4297
vn -0.9026 0.3078 -0.3009
vn -0.8863 0.3566 -0.2954
vn -0.9279 -0.2081 -0.3093
vn -0.9026 0.3078 0.3009
vn -0.8863 0.3566 0.2954
vn -0.9279 -0.2081 0.3093
vn 0.9026 0.3078 0.3009
vn 0.8863 0.3566 0.2954
vn 0.9279 -0.2081 0.3093
vn 0.9026 0.3078 -0.3009
vn 0.8863 0.3566 -0.2954
vn 0.9279 -0.2081 -0.3093
vn -0.9719 0.0000 -0.2354
vn -0.9719 -0.0000 0.2354
vn -0.6980 -0.0000 0.7161
vn 0.6980 -0.0000 0.7161
vn 0.9719 -0.0000 0.2354
vn 0.9719 0.0000 -0.2354
vn 0.6980 0.0000 -0.7161
vn 0.6534 -0.3518 -0.6703
vn 0.9686 -0.0823 -0.2346
vn 0.9837 -0.1798 0.0000
vn 0.9702 -0.0597 0.2350
vn 0.6673 -0.2933 0.6846
vn -0.6673 -0.2933 0.6846
vn -0.9702 -0.0597 0.2350
vn -0.9837 -0.1798 0.0000
vn -0.9686 -0.0823 -0.2346
vn -0.6534 -0.3518 -0.6703
vn 0.9485 0.0176 -0.3162
vn 0.9476 0.0480 0.3159
vn -0.9476 0.0480 0.3159
vn -0.9485 0.0176 -0.3162
vn -0.6980 0.0000 -0.7161
vn -0.9923 0.0003 -0.1240
vn -0.9923 0.0002 0.1240
vn 0.9923 -0.0003 0.1240
vn 0.9923 -0.0002 -0.1240
vn -0.9919 -0.0260 -0.1240
vn -0.9919 -0.0260 0.1240
vn 0.9919 -0.0260 0.1240
vn 0.9919 -0.0260 -0.1240
s 1
f 1/1/1 2/2/1 3/3/1
f 4/4/2 3/5/2 2/6/2
f 4/7/3 5/8/3 6/9/3
f 1/10/4 3/11/4 7/12/4
f 6/13/5 7/12/5 3/11/5
f 6/13/6 5/14/6 8/15/6
f 1/16/7 7/17/7 9/18/7
f 7/17/8 10/19/8 9/18/8
f 8/20/9 5/21/9 10/22/9
f 1/23/10 9/24/10 2/25/10
f 10/26/11 2/25/11 9/24/11
f 10/26/12 5/27/12 4/28/12
f 11/29/13 12/30/13 13/31/13
f 14/32/14 11/29/14 13/31/14
f 15/33/15 12/34/15 16/35/15
f 12/30/16 17/36/16 13/31/16
f 14/32/17 13/31/17 17/36/17
f 12/34/18 18/37/18 19/38/18
f 17/36/19 20/39/19 21/40/19
f 14/32/20 17/36/20 21/40/20
f 18/37/21 20/41/21 19/38/21
f 20/39/22 11/29/22 21/40/22
f 14/32/23 21/40/23 11/29/23
f 20/41/24 15/33/24 16/35/24
f 22/42/25 23/43/25 24/44/25
f 25/45/2 26/46/2 23/47/2
f 27/48/26 28/49/26 26/50/26
f 29/51/27 30/52/27 28/49/27
f 31/53/28 32/54/28 30/52/28
f 33/55/29 34/56/29 32/54/29
f 35/57/8 36/58/8 34/59/8
f 37/60/30 38/61/30 36/58/30
f 39/62/31 40/63/31 38/61/31
f 40/64/32 15/65/32 38/66/32
f 38/67/33 41/68/33 36/69/33
f 36/69/34 41/68/34 34/70/34
f 41/71/35 32/72/35 34/73/35
f 32/74/36 18/75/36 30/76/36
f 18/75/37 28/77/37 30/76/37
f 28/78/38 42/79/38 26/80/38
f 26/80/39 42/79/39 23/81/39
f 23/81/40 42/79/40 24/82/40
f 24/83/41 15/65/41 40/64/41
f 38/84/42 15/85/42 41/86/42
f 41/71/43 18/87/43 32/72/43
f 18/88/44 42/89/44 28/90/44
f 24/91/45 42/92/45 15/93/45
f 37/94/11 27/95/11 25/96/11
f 43/97/46 24/44/46 40/63/46
f 44/98/47 45/99/47 46/100/47
f 46/100/48 47/101/48 48/102/48
f 47/103/49 49/104/49 48/105/49
f 50/106/50 44/107/50 49/108/50
f 46/109/5 49/110/5 44/111/5
f 51/112/51 52/113/51 45/114/51
f 45/114/52 52/113/52 47/115/52
f 52/113/53 50/116/53 47/115/53
f 50/116/54 52/113/54 51/112/54
f 4/4/2 6/117/2 3/5/2
f 6/13/5 8/15/5 7/12/5
f 7/17/8 8/118/8 10/19/8
f 10/26/11 4/28/11 2/25/11
f 11/29/13 16/119/13 12/30/13
f 15/33/15 42/120/15 12/34/15
f 12/30/16 19/121/16 17/36/16
f 12/34/18 42/120/18 18/37/18
f 17/36/19 19/121/19 20/39/19
f 18/37/21 41/122/21 20/41/21
f 20/39/22 16/119/22 11/29/22
f 20/41/24 41/122/24 15/33/24
f 22/42/25 25/123/25 23/43/25
f 25/45/2 27/124/2 26/46/2
f 27/48/26 29/51/26 28/49/26
f 29/51/27 31/53/27 30/52/27
f 31/53/28 33/55/28 32/54/28
f 33/55/29 35/125/29 34/56/29
f 35/57/8 37/60/8 36/58/8
f 37/60/30 39/62/30 38/61/30
f 39/62/31 43/97/31 40/63/31
f 25/96/11 22/126/11 39/127/11
f 43/128/11 39/127/11 22/126/11
f 37/94/11 35/129/11 27/95/11
f 33/130/11 31/131/11 29/132/11
f 29/132/11 27/95/11 35/129/11
f 25/96/11 39/127/11 37/94/11
f 35/129/11 33/130/11 29/132/11
f 43/97/46 22/42/46 24/44/46
f 44/98/47 51/133/47 45/99/47
f 46/100/48 45/99/48 47/101/48
f 47/103/49 50/134/49 49/104/49
f 50/106/50 51/135/50 44/107/50
f 46/109/5 48/136/5 49/110/5
